<svg id="visual" viewBox="0 0 960 300" width="960" height="300" xmlns="http://www.w3.org/2000/svg" xmlns:xlink="http://www.w3.org/1999/xlink" version="1.1"><rect x="0" y="0" width="960" height="300" fill="#202731"></rect><path d="M0 145L22.8 149.2C45.7 153.3 91.3 161.7 137 169C182.7 176.3 228.3 182.7 274 190C319.7 197.3 365.3 205.7 411.2 207.5C457 209.3 503 204.7 548.8 194.3C594.7 184 640.3 168 686 166.3C731.7 164.7 777.3 177.3 823 186C868.7 194.7 914.3 199.3 937.2 201.7L960 204L960 0L937.2 0C914.3 0 868.7 0 823 0C777.3 0 731.7 0 686 0C640.3 0 594.7 0 548.8 0C503 0 457 0 411.2 0C365.3 0 319.7 0 274 0C228.3 0 182.7 0 137 0C91.3 0 45.7 0 22.8 0L0 0Z" fill="#ff6f61"></path><path d="M0 184L22.8 176.7C45.7 169.3 91.3 154.7 137 145.3C182.7 136 228.3 132 274 127.8C319.7 123.7 365.3 119.3 411.2 128.3C457 137.3 503 159.7 548.8 165.2C594.7 170.7 640.3 159.3 686 157C731.7 154.7 777.3 161.3 823 154.5C868.7 147.7 914.3 127.3 937.2 117.2L960 107L960 0L937.2 0C914.3 0 868.7 0 823 0C777.3 0 731.7 0 686 0C640.3 0 594.7 0 548.8 0C503 0 457 0 411.2 0C365.3 0 319.7 0 274 0C228.3 0 182.7 0 137 0C91.3 0 45.7 0 22.8 0L0 0Z" fill="#f76455"></path><path d="M0 131L22.8 129.2C45.7 127.3 91.3 123.7 137 125.7C182.7 127.7 228.3 135.3 274 138.7C319.7 142 365.3 141 411.2 140.8C457 140.7 503 141.3 548.8 136.8C594.7 132.3 640.3 122.7 686 113.5C731.7 104.3 777.3 95.7 823 96C868.7 96.3 914.3 105.7 937.2 110.3L960 115L960 0L937.2 0C914.3 0 868.7 0 823 0C777.3 0 731.7 0 686 0C640.3 0 594.7 0 548.8 0C503 0 457 0 411.2 0C365.3 0 319.7 0 274 0C228.3 0 182.7 0 137 0C91.3 0 45.7 0 22.8 0L0 0Z" fill="#ee5849"></path><path d="M0 56L22.8 58.8C45.7 61.7 91.3 67.3 137 73C182.7 78.7 228.3 84.3 274 87.5C319.7 90.7 365.3 91.3 411.2 93C457 94.7 503 97.3 548.8 99C594.7 100.7 640.3 101.3 686 95.3C731.7 89.3 777.3 76.7 823 71.2C868.7 65.7 914.3 67.3 937.2 68.2L960 69L960 0L937.2 0C914.3 0 868.7 0 823 0C777.3 0 731.7 0 686 0C640.3 0 594.7 0 548.8 0C503 0 457 0 411.2 0C365.3 0 319.7 0 274 0C228.3 0 182.7 0 137 0C91.3 0 45.7 0 22.8 0L0 0Z" fill="#e64c3d"></path><path d="M0 47L22.8 49.8C45.7 52.7 91.3 58.3 137 61.5C182.7 64.7 228.3 65.3 274 64C319.7 62.7 365.3 59.3 411.2 57.3C457 55.3 503 54.7 548.8 51.7C594.7 48.7 640.3 43.3 686 45.2C731.7 47 777.3 56 823 59.5C868.7 63 914.3 61 937.2 60L960 59L960 0L937.2 0C914.3 0 868.7 0 823 0C777.3 0 731.7 0 686 0C640.3 0 594.7 0 548.8 0C503 0 457 0 411.2 0C365.3 0 319.7 0 274 0C228.3 0 182.7 0 137 0C91.3 0 45.7 0 22.8 0L0 0Z" fill="#dd3f31"></path></svg>