<svg width="263" height="65" viewBox="0 0 263 65" fill="none" xmlns="http://www.w3.org/2000/svg">
<path d="M64.43 55.45C64.91 56.53 65.15 57.49 65.15 58.33C65.15 60.01 64.46 61.45 63.08 62.65C61.76 63.79 60.23 64.36 58.49 64.36C57.35 64.36 56.27 64.06 55.25 63.46C54.23 62.8 53.45 61.84 52.91 60.58L48.14 49.96H17.63L12.86 60.58C12.32 61.84 11.54 62.8 10.52 63.46C9.56 64.06 8.48 64.36 7.28 64.36C5.54 64.36 3.98 63.79 2.6 62.65C1.22 61.45 0.53 60.01 0.53 58.33C0.53 57.49 0.77 56.53 1.25 55.45L25.55 4.41999C26.21 2.98 27.2 1.9 28.52 1.18C29.84 0.399998 31.25 0.00999773 32.75 0.00999773C34.31 0.00999773 35.75 0.399998 37.07 1.18C38.39 1.96 39.41 3.03999 40.13 4.41999L64.43 55.45ZM22.4 39.34H43.37L32.93 15.94L22.4 39.34ZM99.1679 18.73C103.008 18.73 106.398 19.66 109.338 21.52C112.278 23.38 114.558 26.05 116.178 29.53C117.858 32.95 118.698 36.94 118.698 41.5C118.698 46.06 117.858 50.11 116.178 53.65C114.558 57.13 112.248 59.86 109.248 61.84C106.308 63.76 102.948 64.72 99.1679 64.72C96.1079 64.72 93.3479 64.09 90.8879 62.83C88.4279 61.51 86.5379 59.71 85.2179 57.43V58.15C85.2179 60.07 84.6179 61.63 83.4179 62.83C82.2179 63.97 80.5979 64.54 78.5579 64.54C76.5179 64.54 74.8679 63.97 73.6079 62.83C72.4079 61.63 71.8079 60.07 71.8079 58.15V6.31C71.8079 4.45 72.4379 2.95 73.6979 1.81C75.0179 0.669996 76.7279 0.0999966 78.8279 0.0999966C80.8079 0.0999966 82.3979 0.639997 83.5979 1.72C84.7979 2.8 85.3979 4.24 85.3979 6.04V25.75C86.7179 23.53 88.5779 21.82 90.9779 20.62C93.4379 19.36 96.1679 18.73 99.1679 18.73ZM95.2079 54.37C98.3879 54.37 100.848 53.26 102.588 51.04C104.328 48.76 105.198 45.58 105.198 41.5C105.198 37.48 104.328 34.42 102.588 32.32C100.848 30.16 98.3879 29.08 95.2079 29.08C92.0279 29.08 89.5679 30.19 87.8279 32.41C86.0879 34.57 85.2179 37.66 85.2179 41.68C85.2179 45.76 86.0879 48.91 87.8279 51.13C89.5679 53.29 92.0279 54.37 95.2079 54.37ZM148.243 64.72C143.563 64.72 139.453 63.79 135.913 61.93C132.373 60.01 129.643 57.34 127.723 53.92C125.803 50.44 124.843 46.36 124.843 41.68C124.843 37 125.803 32.95 127.723 29.53C129.643 26.05 132.373 23.38 135.913 21.52C139.453 19.66 143.563 18.73 148.243 18.73C152.923 18.73 157.033 19.66 160.573 21.52C164.113 23.38 166.843 26.05 168.763 29.53C170.683 32.95 171.643 37 171.643 41.68C171.643 46.36 170.683 50.44 168.763 53.92C166.843 57.34 164.113 60.01 160.573 61.93C157.033 63.79 152.923 64.72 148.243 64.72ZM148.243 54.37C154.843 54.37 158.143 50.14 158.143 41.68C158.143 37.42 157.273 34.24 155.533 32.14C153.853 30.04 151.423 28.99 148.243 28.99C141.643 28.99 138.343 33.22 138.343 41.68C138.343 50.14 141.643 54.37 148.243 54.37ZM215.643 18.91C217.743 18.91 219.393 19.48 220.593 20.62C221.853 21.76 222.483 23.32 222.483 25.3V58.33C222.483 60.19 221.823 61.69 220.503 62.83C219.243 63.97 217.593 64.54 215.553 64.54C213.633 64.54 212.103 64 210.963 62.92C209.823 61.84 209.253 60.4 209.253 58.6V57.7C207.873 59.98 206.043 61.72 203.763 62.92C201.543 64.12 199.023 64.72 196.203 64.72C190.623 64.72 186.453 63.19 183.693 60.13C180.993 57.01 179.643 52.33 179.643 46.09V25.3C179.643 23.32 180.243 21.76 181.443 20.62C182.703 19.48 184.383 18.91 186.483 18.91C188.583 18.91 190.233 19.48 191.433 20.62C192.633 21.76 193.233 23.32 193.233 25.3V46.36C193.233 49 193.773 50.95 194.853 52.21C195.993 53.47 197.703 54.1 199.983 54.1C202.623 54.1 204.753 53.2 206.373 51.4C208.053 49.6 208.893 47.23 208.893 44.29V25.3C208.893 23.32 209.493 21.76 210.693 20.62C211.893 19.48 213.543 18.91 215.643 18.91ZM257.481 54.64C259.281 54.76 260.601 55.21 261.441 55.99C262.281 56.77 262.701 57.91 262.701 59.41C262.701 61.15 262.011 62.47 260.631 63.37C259.251 64.27 257.271 64.63 254.691 64.45L252.171 64.27C241.671 63.43 236.421 57.94 236.421 47.8V29.98H232.821C230.841 29.98 229.341 29.56 228.321 28.72C227.301 27.82 226.791 26.56 226.791 24.94C226.791 23.26 227.301 22 228.321 21.16C229.341 20.26 230.841 19.81 232.821 19.81H236.421V12.79C236.421 10.81 237.021 9.24999 238.221 8.11C239.481 6.97 241.161 6.4 243.261 6.4C245.361 6.4 247.011 6.97 248.211 8.11C249.411 9.24999 250.011 10.81 250.011 12.79V19.81H256.311C260.391 19.81 262.431 21.52 262.431 24.94C262.431 26.56 261.921 27.82 260.901 28.72C259.881 29.56 258.351 29.98 256.311 29.98H250.011V48.79C250.011 50.59 250.431 51.97 251.271 52.93C252.111 53.83 253.341 54.34 254.961 54.46L257.481 54.64Z" fill="white"/>
</svg>